<mxfile host="app.diagrams.net" modified="2021-05-09T11:50:24.965Z" agent="5.0 (Windows NT 10.0; Win64; x64) AppleWebKit/537.36 (KHTML, like Gecko) Chrome/90.0.4430.93 Safari/537.36" etag="GOuPhQKQ7XIr1whoKceI" version="14.6.6" type="github" pages="3">
  <diagram id="R78xaqouT0fXK327TKrT" name="7.4.4 查看用户信息状态图">
    <mxGraphModel dx="1037" dy="532" grid="1" gridSize="10" guides="1" tooltips="1" connect="1" arrows="1" fold="1" page="1" pageScale="1" pageWidth="850" pageHeight="1100" math="0" shadow="0">
      <root>
        <mxCell id="0" />
        <mxCell id="1" parent="0" />
        <mxCell id="JF_MuRx8x4yZo3toYtdr-5" value="stm 查看用户信息状态图" style="shape=umlFrame;whiteSpace=wrap;html=1;width=160;height=40;" vertex="1" parent="1">
          <mxGeometry x="40" y="40" width="800" height="480" as="geometry" />
        </mxCell>
        <mxCell id="JF_MuRx8x4yZo3toYtdr-14" value="" style="edgeStyle=orthogonalEdgeStyle;rounded=0;orthogonalLoop=1;jettySize=auto;html=1;endArrow=open;endFill=0;strokeColor=#FF0000;" edge="1" parent="1" source="JF_MuRx8x4yZo3toYtdr-6">
          <mxGeometry relative="1" as="geometry">
            <mxPoint x="160" y="265" as="targetPoint" />
          </mxGeometry>
        </mxCell>
        <mxCell id="JF_MuRx8x4yZo3toYtdr-6" value="" style="ellipse;html=1;shape=startState;fillColor=#000000;strokeColor=#ff0000;" vertex="1" parent="1">
          <mxGeometry x="80" y="250" width="30" height="30" as="geometry" />
        </mxCell>
        <mxCell id="JF_MuRx8x4yZo3toYtdr-28" value="" style="edgeStyle=orthogonalEdgeStyle;rounded=0;orthogonalLoop=1;jettySize=auto;html=1;endArrow=open;endFill=0;" edge="1" parent="1" source="JF_MuRx8x4yZo3toYtdr-24" target="JF_MuRx8x4yZo3toYtdr-27">
          <mxGeometry relative="1" as="geometry" />
        </mxCell>
        <mxCell id="JF_MuRx8x4yZo3toYtdr-24" value="空闲" style="html=1;align=center;verticalAlign=top;rounded=1;absoluteArcSize=1;arcSize=10;dashed=0;" vertex="1" parent="1">
          <mxGeometry x="160" y="245" width="100" height="40" as="geometry" />
        </mxCell>
        <mxCell id="JF_MuRx8x4yZo3toYtdr-32" value="" style="edgeStyle=orthogonalEdgeStyle;rounded=0;orthogonalLoop=1;jettySize=auto;html=1;endArrow=open;endFill=0;strokeColor=#000000;" edge="1" parent="1" source="JF_MuRx8x4yZo3toYtdr-27" target="JF_MuRx8x4yZo3toYtdr-31">
          <mxGeometry relative="1" as="geometry" />
        </mxCell>
        <mxCell id="JF_MuRx8x4yZo3toYtdr-27" value="查看用户信息开始" style="rounded=1;whiteSpace=wrap;html=1;dashed=0;verticalAlign=top;arcSize=10;" vertex="1" parent="1">
          <mxGeometry x="350" y="245" width="120" height="40" as="geometry" />
        </mxCell>
        <mxCell id="JF_MuRx8x4yZo3toYtdr-29" value="点击用户信息" style="text;html=1;resizable=0;autosize=1;align=center;verticalAlign=middle;points=[];fillColor=none;strokeColor=none;rounded=0;" vertex="1" parent="1">
          <mxGeometry x="260" y="245" width="90" height="20" as="geometry" />
        </mxCell>
        <mxCell id="JF_MuRx8x4yZo3toYtdr-42" style="edgeStyle=orthogonalEdgeStyle;rounded=0;orthogonalLoop=1;jettySize=auto;html=1;entryX=1;entryY=0.5;entryDx=0;entryDy=0;endArrow=open;endFill=0;strokeColor=#000000;" edge="1" parent="1" source="JF_MuRx8x4yZo3toYtdr-31" target="JF_MuRx8x4yZo3toYtdr-57">
          <mxGeometry relative="1" as="geometry">
            <Array as="points">
              <mxPoint x="560" y="395" />
            </Array>
          </mxGeometry>
        </mxCell>
        <mxCell id="JF_MuRx8x4yZo3toYtdr-45" value="" style="edgeStyle=orthogonalEdgeStyle;rounded=0;orthogonalLoop=1;jettySize=auto;html=1;endArrow=open;endFill=0;strokeColor=#000000;" edge="1" parent="1" source="JF_MuRx8x4yZo3toYtdr-31" target="JF_MuRx8x4yZo3toYtdr-44">
          <mxGeometry relative="1" as="geometry">
            <Array as="points">
              <mxPoint x="680" y="250" />
              <mxPoint x="680" y="250" />
            </Array>
          </mxGeometry>
        </mxCell>
        <mxCell id="JF_MuRx8x4yZo3toYtdr-50" value="" style="edgeStyle=orthogonalEdgeStyle;rounded=0;orthogonalLoop=1;jettySize=auto;html=1;endArrow=open;endFill=0;strokeColor=#000000;" edge="1" parent="1" source="JF_MuRx8x4yZo3toYtdr-31" target="JF_MuRx8x4yZo3toYtdr-49">
          <mxGeometry relative="1" as="geometry" />
        </mxCell>
        <mxCell id="JF_MuRx8x4yZo3toYtdr-31" value="显示用户信息" style="rounded=1;whiteSpace=wrap;html=1;dashed=0;verticalAlign=top;arcSize=10;" vertex="1" parent="1">
          <mxGeometry x="510" y="245" width="100" height="40" as="geometry" />
        </mxCell>
        <mxCell id="JF_MuRx8x4yZo3toYtdr-43" value="点击返回" style="text;html=1;resizable=0;autosize=1;align=center;verticalAlign=middle;points=[];fillColor=none;strokeColor=none;rounded=0;" vertex="1" parent="1">
          <mxGeometry x="500" y="330" width="60" height="20" as="geometry" />
        </mxCell>
        <mxCell id="JF_MuRx8x4yZo3toYtdr-62" style="edgeStyle=orthogonalEdgeStyle;rounded=0;orthogonalLoop=1;jettySize=auto;html=1;endArrow=open;endFill=0;" edge="1" parent="1" source="JF_MuRx8x4yZo3toYtdr-44" target="JF_MuRx8x4yZo3toYtdr-31">
          <mxGeometry relative="1" as="geometry" />
        </mxCell>
        <mxCell id="JF_MuRx8x4yZo3toYtdr-44" value="错误提示" style="rounded=1;whiteSpace=wrap;html=1;dashed=0;verticalAlign=top;arcSize=10;" vertex="1" parent="1">
          <mxGeometry x="700" y="232.5" width="120" height="65" as="geometry" />
        </mxCell>
        <mxCell id="JF_MuRx8x4yZo3toYtdr-46" value="修改信息&lt;br&gt;[格式错误]" style="text;html=1;resizable=0;autosize=1;align=center;verticalAlign=middle;points=[];fillColor=none;strokeColor=none;rounded=0;" vertex="1" parent="1">
          <mxGeometry x="615" y="220" width="70" height="30" as="geometry" />
        </mxCell>
        <mxCell id="JF_MuRx8x4yZo3toYtdr-48" value="时钟到时" style="text;html=1;resizable=0;autosize=1;align=center;verticalAlign=middle;points=[];fillColor=none;strokeColor=none;rounded=0;" vertex="1" parent="1">
          <mxGeometry x="620" y="265" width="60" height="20" as="geometry" />
        </mxCell>
        <mxCell id="JF_MuRx8x4yZo3toYtdr-54" style="edgeStyle=orthogonalEdgeStyle;rounded=0;orthogonalLoop=1;jettySize=auto;html=1;endArrow=open;endFill=0;strokeColor=#000000;exitX=0;exitY=0.5;exitDx=0;exitDy=0;" edge="1" parent="1" source="JF_MuRx8x4yZo3toYtdr-49">
          <mxGeometry relative="1" as="geometry">
            <mxPoint x="388" y="240" as="targetPoint" />
            <Array as="points">
              <mxPoint x="388" y="163" />
            </Array>
          </mxGeometry>
        </mxCell>
        <mxCell id="JF_MuRx8x4yZo3toYtdr-49" value="用户信息更新，提示修改成功" style="rounded=1;whiteSpace=wrap;html=1;dashed=0;verticalAlign=top;arcSize=10;" vertex="1" parent="1">
          <mxGeometry x="500" y="140" width="120" height="45" as="geometry" />
        </mxCell>
        <mxCell id="JF_MuRx8x4yZo3toYtdr-51" value="修改信息&lt;br&gt;[格式正确]" style="text;html=1;resizable=0;autosize=1;align=center;verticalAlign=middle;points=[];fillColor=none;strokeColor=none;rounded=0;" vertex="1" parent="1">
          <mxGeometry x="490" y="200" width="70" height="30" as="geometry" />
        </mxCell>
        <mxCell id="JF_MuRx8x4yZo3toYtdr-55" value="时钟到时" style="text;html=1;resizable=0;autosize=1;align=center;verticalAlign=middle;points=[];fillColor=none;strokeColor=none;rounded=0;" vertex="1" parent="1">
          <mxGeometry x="410" y="140" width="60" height="20" as="geometry" />
        </mxCell>
        <mxCell id="JF_MuRx8x4yZo3toYtdr-56" value="" style="ellipse;html=1;shape=endState;fillColor=#000000;strokeColor=#ff0000;" vertex="1" parent="1">
          <mxGeometry x="170" y="380" width="30" height="30" as="geometry" />
        </mxCell>
        <mxCell id="JF_MuRx8x4yZo3toYtdr-58" value="" style="edgeStyle=orthogonalEdgeStyle;rounded=0;orthogonalLoop=1;jettySize=auto;html=1;endArrow=open;endFill=0;strokeColor=#FF0000;" edge="1" parent="1" source="JF_MuRx8x4yZo3toYtdr-57" target="JF_MuRx8x4yZo3toYtdr-56">
          <mxGeometry relative="1" as="geometry" />
        </mxCell>
        <mxCell id="JF_MuRx8x4yZo3toYtdr-57" value="查看用户信息结束" style="html=1;align=center;verticalAlign=top;rounded=1;absoluteArcSize=1;arcSize=10;dashed=0;" vertex="1" parent="1">
          <mxGeometry x="280" y="375" width="120" height="40" as="geometry" />
        </mxCell>
      </root>
    </mxGraphModel>
  </diagram>
  <diagram id="cQp6Rxe3EmaTujAg6KYK" name="7.5.4 创建课程状态图">
    <mxGraphModel dx="1037" dy="532" grid="1" gridSize="10" guides="1" tooltips="1" connect="1" arrows="1" fold="1" page="1" pageScale="1" pageWidth="850" pageHeight="1100" math="0" shadow="0">
      <root>
        <mxCell id="PjIbphXWAcYPcqoNooAm-0" />
        <mxCell id="PjIbphXWAcYPcqoNooAm-1" parent="PjIbphXWAcYPcqoNooAm-0" />
      </root>
    </mxGraphModel>
  </diagram>
  <diagram id="32CVirhiUENbnsEZaFPC" name="7.6.4 管理课程状态图">
    <mxGraphModel dx="1037" dy="532" grid="1" gridSize="10" guides="1" tooltips="1" connect="1" arrows="1" fold="1" page="1" pageScale="1" pageWidth="850" pageHeight="1100" math="0" shadow="0">
      <root>
        <mxCell id="AyHcBvlUNfm0NTus6usM-0" />
        <mxCell id="AyHcBvlUNfm0NTus6usM-1" parent="AyHcBvlUNfm0NTus6usM-0" />
      </root>
    </mxGraphModel>
  </diagram>
</mxfile>
